PathFileType	4	(X/Y/Z)	E:\Marcel_BSc\Marcel\30_01_2025\static_00.trc
DataRate	CameraRate	NumFrames	NumMarkers	Units	OrigDataRate	OrigDataStartFrame	OrigNumFrames
200.0	200.0	4	59	mm	200.0	139	158	
Frame#	Time	FHD			LBHD			RBHD			RBAR			LBAR			RASI			RSACR			LSACR			LASI			USACR			C7			CLAV			T10			RSHO			LSHO			LTHI1			LTHI3			LTHI2			LLFC			LMFC			LTIB1			LTIB2			LTIB3			LMMAL			LLMAL			LHEE			LMT1			LMT5			LMT3			RTHI1			RTHI2			RTHI3			RLFC			RMFC			RTIB1			RTIB3			RTIB2			RLMAL			RMMAL			RHEE			RMT5			RMT1			RMT3			LMEP			LLEP			LDUPA			LMUPA			LUUPA			LUL			LRAD			LRFIN			RUL			RRAD			RUFIN			RMEP			RLEP			RMUPA			RDUPA			RUUPA			
		X1	Y1	Z1	X2	Y2	Z2	X3	Y3	Z3	X4	Y4	Z4	X5	Y5	Z5	X6	Y6	Z6	X7	Y7	Z7	X8	Y8	Z8	X9	Y9	Z9	X10	Y10	Z10	X11	Y11	Z11	X12	Y12	Z12	X13	Y13	Z13	X14	Y14	Z14	X15	Y15	Z15	X16	Y16	Z16	X17	Y17	Z17	X18	Y18	Z18	X19	Y19	Z19	X20	Y20	Z20	X21	Y21	Z21	X22	Y22	Z22	X23	Y23	Z23	X24	Y24	Z24	X25	Y25	Z25	X26	Y26	Z26	X27	Y27	Z27	X28	Y28	Z28	X29	Y29	Z29	X30	Y30	Z30	X31	Y31	Z31	X32	Y32	Z32	X33	Y33	Z33	X34	Y34	Z34	X35	Y35	Z35	X36	Y36	Z36	X37	Y37	Z37	X38	Y38	Z38	X39	Y39	Z39	X40	Y40	Z40	X41	Y41	Z41	X42	Y42	Z42	X43	Y43	Z43	X44	Y44	Z44	X45	Y45	Z45	X46	Y46	Z46	X47	Y47	Z47	X48	Y48	Z48	X49	Y49	Z49	X50	Y50	Z50	X51	Y51	Z51	X52	Y52	Z52	X53	Y53	Z53	X54	Y54	Z54	X55	Y55	Z55	X56	Y56	Z56	X57	Y57	Z57	X58	Y58	Z58	X59	Y59	Z59	
139	0.685	101.41898	1817.4624	-582.11847	133.86365	1803.2654	-523.6142	130.1412	1801.0464	-652.81622	1237.766	37.498287	-1766.9758	1248.0886	32.380558	457.80267	101.91965	1048.3445	-723.4303	311.03458	1097.9989	-621.42114	307.0307	1095.1143	-557.4491	96.473183	1038.9447	-458.77832	302.79694	1111.922	-589.35217	278.91412	1567.3843	-584.0816	116.34411	1531.671	-585.35181	282.82816	1257.7715	-577.7265	239.58417	1605.3394	-734.92261	223.47649	1595.9236	-417.78247	229.06308	706.96344	-409.94525	258.51523	651.18396	-428.55499	211.48076	643.79333	-407.86029	221.76974	524.75079	-415.06769	174.83586	506.37485	-516.92157	222.35014	276.41937	-399.75119	269.62897	274.85779	-380.93921	242.93117	214.22986	-391.81827	268.03006	92.45974	-468.09476	287.07953	83.655571	-380.57523	344.06183	39.058784	-422.24106	115.25333	41.431984	-434.39706	145.15388	26.126232	-352.01974	122.67085	36.083019	-388.9278	208.12376	674.92902	-793.25665	255.21576	670.98419	-773.98602	226.53593	613.10596	-781.91071	203.34549	529.39575	-778.4707	179.59589	508.76343	-682.16809	259.98056	277.70901	-811.59167	291.64407	219.50117	-814.09772	240.77591	214.4178	-809.98438	292.80197	75.429382	-813.71924	245.16261	71.124634	-736.41132	339.89496	30.522766	-765.13635	173.1044	26.134392	-862.68274	109.42704	42.557461	-788.43579	134.09172	40.171028	-828.99084	161.35092	1470.3877	-114.93322	234.13588	1509.8325	-116.61276	259.92902	1524.1935	-217.80379	227.21762	1561.8245	-220.1299	236.07784	1565.9215	-281.78629	171.5065	1563.446	167.02287	141.92943	1628.2939	136.17659	168.21887	1657.3403	235.7325	215.80136	1590.2163	-1342.4775	194.69577	1657.1979	-1309.1781	225.44254	1679.9385	-1395.6719	178.24126	1483.7542	-1045.7614	247.58524	1538.9032	-1058.2646	246.29294	1577.2432	-911.05243	254.24078	1564.3641	-971.33075	281.22726	1542.3601	-899.47424
140	0.69	101.41563	1817.4872	-582.12811	133.85359	1803.2792	-523.62732	130.14165	1801.0502	-652.83752	1237.7686	37.490574	-1766.9584	1248.0057	32.426765	457.96744	101.926	1048.328	-723.43262	311.03159	1098.0143	-621.41486	307.02832	1095.1293	-557.43787	96.45871	1038.9414	-458.76587	302.79282	1111.9409	-589.33691	278.88797	1567.3939	-584.07501	116.32193	1531.6771	-585.35229	282.81573	1257.7711	-577.74152	239.56819	1605.3508	-734.93634	223.45377	1595.9425	-417.78714	229.0649	706.96643	-409.93741	258.5173	651.19775	-428.54831	211.48618	643.79669	-407.85052	221.77211	524.75525	-415.06284	174.85559	506.36459	-516.90173	222.4122	276.33203	-400.05948	269.6308	274.86462	-380.92374	242.93938	214.23006	-391.81512	268.09369	92.439087	-468.07669	287.0834	83.660774	-380.56738	343.91544	38.994221	-422.37482	115.25426	41.427822	-434.39117	145.14905	26.121143	-352.01288	122.67391	36.079712	-388.91888	208.17084	674.75446	-793.29218	255.24286	670.99005	-773.96753	226.4774	613.13196	-781.9519	203.36293	529.40057	-778.46722	179.60851	508.76355	-682.16589	259.98856	277.71518	-811.59656	291.57538	219.51703	-814.05609	240.78014	214.41846	-809.98871	292.82285	75.433281	-813.71533	245.16148	71.12381	-736.41229	339.68927	30.413666	-765.35828	173.10475	26.135359	-862.68896	109.41387	42.557796	-788.45087	134.10617	40.151619	-828.99133	161.3463	1470.3923	-114.92907	234.13715	1509.8489	-116.59444	259.9147	1524.2319	-217.78946	227.07639	1561.9208	-219.75217	236.03693	1565.9363	-281.80692	171.49222	1563.4458	167.0302	141.90271	1628.3015	136.17886	168.3645	1657.447	235.57936	215.76082	1590.1744	-1342.4813	194.6622	1657.1592	-1309.1918	225.40863	1679.8965	-1395.6825	178.2477	1483.5023	-1045.8085	247.54614	1538.8868	-1058.2863	246.28409	1577.2203	-911.05981	254.21684	1564.3232	-971.32971	281.19415	1542.3228	-899.49561
141	0.695	101.41708	1817.4694	-582.14319	133.82561	1803.285	-523.64264	130.13541	1801.0553	-652.84839	1237.7692	37.497276	-1766.9655	1247.9966	32.445057	457.98938	101.91043	1048.3293	-723.4411	311.03223	1098.0148	-621.41406	306.97729	1095.2085	-557.37903	96.44902	1038.9393	-458.7688	302.79272	1111.9429	-589.32623	278.8717	1567.3967	-584.08502	116.30988	1531.6757	-585.34839	282.81839	1257.7795	-577.74689	239.55443	1605.3503	-734.94855	223.43115	1595.9517	-417.79123	229.06558	706.96973	-409.9296	258.51828	651.19086	-428.54037	211.48502	643.81226	-407.85004	221.79323	524.76196	-415.04901	174.85696	506.37753	-516.90637	222.472	276.35867	-400.05774	269.62634	274.87018	-380.92484	242.94821	214.22922	-391.81671	268.09171	92.437996	-468.08163	287.08353	83.666512	-380.56448	343.93365	39.082611	-422.29733	115.25569	41.427307	-434.38672	145.14813	26.121153	-352.01208	122.67073	36.0741	-388.91794	208.38438	674.99506	-793.04504	255.25475	670.98755	-773.96649	226.56976	613.1145	-781.9007	203.37938	529.39984	-778.46667	179.62331	508.75992	-682.16223	259.99246	277.72354	-811.60315	291.75629	219.42319	-814.21161	240.7881	214.42683	-810.00128	292.8219	75.428932	-813.7146	245.17046	71.122963	-736.4173	340.13654	30.555603	-765.31793	173.11322	26.130074	-862.68848	109.42503	42.565781	-788.43872	134.11151	40.163494	-828.98517	161.32143	1470.3998	-114.92089	234.09436	1509.8535	-116.60538	259.88718	1524.269	-217.78909	227.1377	1561.8862	-220.07581	235.99553	1565.9498	-281.80435	171.46793	1563.4493	167.02625	141.86465	1628.3035	136.17885	168.345	1657.4736	235.57324	215.72708	1590.1384	-1342.4875	194.62427	1657.1226	-1309.2114	225.36618	1679.8391	-1395.7003	178.1954	1483.7109	-1045.7759	247.40352	1538.8378	-1058.3572	246.2661	1577.1998	-911.07477	254.19128	1564.3069	-971.33398	281.17032	1542.295	-899.50134
142	0.7	101.39796	1817.4801	-582.14734	133.81046	1803.288	-523.65668	130.12743	1801.0494	-652.86987	1237.7622	37.498253	-1766.9723	1247.9377	32.324497	457.96213	101.90362	1048.3143	-723.43677	311.02258	1098.0332	-621.39917	307.00748	1095.147	-557.42041	96.439766	1038.9269	-458.76376	302.7811	1111.9536	-589.32483	278.86066	1567.3995	-584.08417	116.28993	1531.6776	-585.3515	282.80463	1257.7708	-577.75305	239.54417	1605.3596	-734.96375	223.40741	1595.97	-417.79065	229.06116	706.97357	-409.93182	258.52615	651.19464	-428.52051	211.49626	643.81482	-407.84863	221.79741	524.76038	-415.04828	174.8783	506.36029	-516.89233	222.43124	276.49036	-399.68677	269.64041	274.86935	-380.91287	242.95518	214.25346	-391.80325	268.09052	92.454109	-468.06793	287.07822	83.670441	-380.55655	343.91116	38.983131	-422.37186	115.24913	41.427505	-434.38632	145.15091	26.11911	-352.01028	122.67678	36.077824	-388.91641	208.4156	675.00397	-793.03522	255.26726	670.98792	-773.96777	226.53996	613.05682	-781.95648	203.38969	529.41772	-778.45691	179.64061	508.75278	-682.15924	259.99927	277.72299	-811.59961	291.77289	219.40816	-814.21527	240.79106	214.42216	-809.98944	292.81696	75.428566	-813.72296	245.16713	71.128906	-736.41833	339.78201	30.478035	-765.27026	173.12465	26.118296	-862.68188	109.42702	42.557716	-788.44415	134.10863	40.168083	-828.98071	161.17653	1470.6105	-114.96207	234.0544	1509.8684	-116.60772	259.8598	1524.3049	-217.78265	227.10266	1561.896	-220.12364	235.97253	1565.9866	-281.78412	171.42599	1563.4525	167.01363	141.83934	1628.3071	136.18245	168.32101	1657.4705	235.57739	215.68512	1590.088	-1342.493	194.58383	1657.0829	-1309.2343	225.32581	1679.8	-1395.7332	178.31665	1483.7202	-1045.9844	247.46866	1538.8655	-1058.304	246.23772	1577.1827	-911.09119	254.15692	1564.2885	-971.36041	281.12497	1542.2542	-899.51636
